<?xml version="1.0" encoding="UTF-8" standalone="no"?>
<svg
   version="1.1"
   viewBox="0 0 1255.49 384.13"
   id="a"
   overflow="hidden"
   sodipodi:docname="kubstu-official-logotype-dark.svg"
   inkscape:version="1.4.2 (ebf0e940d0, 2025-05-08)"
   xmlns:inkscape="http://www.inkscape.org/namespaces/inkscape"
   xmlns:sodipodi="http://sodipodi.sourceforge.net/DTD/sodipodi-0.dtd"
   xmlns="http://www.w3.org/2000/svg"
   xmlns:svg="http://www.w3.org/2000/svg">
  <sodipodi:namedview
     id="namedview19"
     pagecolor="#000000"
     bordercolor="#000000"
     borderopacity="0.25"
     inkscape:showpageshadow="2"
     inkscape:pageopacity="0.0"
     inkscape:pagecheckerboard="0"
     inkscape:deskcolor="#2d2d2d"
     inkscape:zoom="0.70888658"
     inkscape:cx="627.03966"
     inkscape:cy="191.85016"
     inkscape:window-width="3840"
     inkscape:window-height="2160"
     inkscape:window-x="0"
     inkscape:window-y="0"
     inkscape:window-maximized="0"
     inkscape:current-layer="a" />
  <defs
     id="defs1" />
  <g
     id="g2">
    <path
       d=" M 339.79 334.93 C 324.7 335.43 309.99 333.12 296.23 326.5 C 278.5 317.98 267.67 303.68 262.14 285.1 C 258.92 274.29 257.79 263.19 257.79 251.94 C 257.79 204.27 257.79 156.6 257.79 108.92 L 257.79 106.45 L 186.3 106.45 L 186.3 330.23 L 112.38 330.23 L 112.38 106.37 L 67.24 106.37 L 67.24 49.13 L 384.13 49.13 L 384.13 0 L 0 0 L 0 384.13 L 384.13 384.13 L 384.13 328.05 C 370.13 331.19 354.15 334.45 339.79 334.93 Z"
       fill="#FFFFFF"
       id="path1" />
    <path
       d=" M 334 108.45 C 334 153.62 333.98 198.79 334.04 243.96 C 334.04 247.99 334.35 252.07 335.03 256.04 C 336.6 265.1 341.75 270.16 350.74 272.06 C 357.83 273.56 364.93 273.33 372.05 272.25 C 375.97 271.66 379.95 271.22 384.12 270.68 L 384.12 106.26 L 333.99 106.26 L 333.99 108.45 Z"
       fill="#FFFFFF"
       id="path2" />
  </g>
  <g
     id="g19">
    <path
       d=" M 572.66 256.51 L 549.61 256.51 L 549.61 326.36 L 525.78 326.36 L 525.78 256.51 L 511.23 256.51 L 511.23 234.21 L 611.8 234.21 L 611.8 256.51 L 597.22 256.51 C 597.22 256.8 597.22 256.51 597.22 256.72 C 597.22 271.28 597.22 282.45 597.23 297.01 C 597.23 298.31 597.33 299.62 597.55 300.9 C 598.06 303.82 599.71 305.45 602.62 306.06 C 604.91 306.54 607.19 306.47 609.49 306.12 C 610.75 305.93 612.03 305.79 613.37 305.61 L 613.37 306.31 C 613.37 312.02 613.37 317.72 613.38 323.43 C 613.38 323.91 613.27 324.15 612.77 324.26 C 608.26 325.27 603.71 326.18 599.08 326.33 C 594.22 326.49 589.47 325.75 585.04 323.61 C 579.32 320.86 575.83 316.25 574.05 310.26 C 573.01 306.77 572.65 303.2 572.65 299.57"
       fill="#FFFFFF"
       id="path3" />
    <g
       id="g18">
      <path
         d=" M 511.24 164.74 L 511.24 88.78 L 523.39 88.78 L 523.39 120.68 L 527.34 120.68 L 558.33 88.78 L 574.13 88.78 L 537.98 126.76 L 574.13 164.74 L 558.33 164.74 L 527.34 133.3 L 523.39 133.3 L 523.39 164.74 L 511.24 164.74 Z"
         fill="#FFFFFF"
         id="path4" />
      <path
         d=" M 659.2 88.78 L 614.99 195.12 L 601.47 195.12 L 614.23 162 L 584 88.78 L 597.52 88.78 L 621.52 148.33 L 645.67 88.78 L 659.19 88.78 Z"
         fill="#FFFFFF"
         id="path5" />
      <path
         d=" M 747.45 57.79 C 744.41 60.73 740.44 62.95 735.53 64.47 C 730.62 65.99 724.36 67.31 716.77 68.42 C 706.74 69.84 698.77 74.14 692.84 81.33 C 686.92 88.52 683.55 98.29 682.74 110.65 C 685.78 104.98 690.26 100.47 696.18 97.13 C 702.1 93.79 708.51 92.12 715.4 92.12 C 725.63 92.12 734.18 95.69 741.07 102.83 C 747.96 109.97 751.4 118.81 751.4 129.34 C 751.4 139.87 747.7 149.37 740.31 156.61 C 732.92 163.85 723.55 167.47 712.21 167.47 C 704.61 167.47 697.65 165.72 691.32 162.23 C 684.99 158.74 680.2 153.85 676.96 147.57 C 672.71 139.57 670.58 129.34 670.58 116.88 C 670.58 99.26 674.4 85.56 682.05 75.79 C 689.7 66.02 700.66 59.97 714.94 57.64 C 719.6 56.83 723.17 56.17 725.65 55.66 C 728.13 55.15 730.84 54.35 733.78 53.23 C 736.72 52.12 739.04 50.75 740.77 49.13 L 747.45 57.79 Z M 684.26 128.58 C 684.26 135.97 687.04 142.28 692.61 147.49 C 698.18 152.71 704.91 155.31 712.81 155.31 C 720.71 155.31 726.71 152.86 731.72 147.94 C 736.73 143.03 739.24 136.88 739.24 129.48 C 739.24 122.08 736.68 115.99 731.57 111.18 C 726.46 106.37 719.9 103.96 711.9 103.96 C 703.9 103.96 697.42 106.31 692.15 111.02 C 686.88 115.73 684.25 121.58 684.25 128.57 Z"
         fill="#FFFFFF"
         id="path6" />
      <path
         d=" M 812.92 129.65 L 791.2 132.23 C 780.97 133.55 775.86 137.45 775.86 143.93 C 775.86 147.37 777.28 150.13 780.11 152.21 C 782.94 154.29 786.74 155.32 791.5 155.32 C 797.98 155.32 803.17 153.4 807.07 149.55 C 810.97 145.7 812.92 140.64 812.92 134.36 L 818.24 134.36 C 818.24 143.58 815.4 151.22 809.73 157.3 C 804.06 163.38 796.97 166.41 788.46 166.41 C 781.27 166.41 775.32 164.36 770.61 160.26 C 765.9 156.16 763.55 150.87 763.55 144.39 C 763.65 138.21 765.9 133.1 770.31 129.05 C 774.72 125 780.82 122.52 788.61 121.61 L 812.92 118.88 L 812.92 115.84 C 812.92 111.18 811.12 107.13 807.53 103.69 C 803.93 100.25 799.55 98.53 794.39 98.53 C 789.73 98.53 785.6 99.8 782.01 102.33 C 778.41 104.86 776.16 108.16 775.25 112.2 L 763.71 108.55 C 765.73 102.17 769.51 97.01 775.03 93.06 C 780.55 89.11 786.8 87.14 793.79 87.14 C 802.3 87.14 809.64 89.85 815.82 95.27 C 822 100.69 825.09 107.15 825.09 114.64 L 825.09 164.77 L 812.94 164.77 L 812.94 129.68 Z"
         fill="#FFFFFF"
         id="path7" />
      <path
         d=" M 843.31 164.74 L 843.31 88.78 L 855.46 88.78 L 855.46 120.83 L 902.86 120.83 L 902.86 88.78 L 915.01 88.78 L 915.01 164.73 L 902.86 164.73 L 902.86 132.37 L 855.46 132.37 L 855.46 164.73 L 843.31 164.73 Z"
         fill="#FFFFFF"
         id="path8" />
      <path
         d=" M 950.55 105.72 C 945.08 111.14 942.35 118.1 942.35 126.61 C 942.35 135.12 945.08 142.08 950.55 147.5 C 956.02 152.92 962.7 155.63 970.6 155.63 C 976.27 155.63 981.39 154.26 985.94 151.53 C 990.5 148.8 993.99 144.95 996.42 139.98 L 1007.51 144.99 C 1004.17 151.88 999.2 157.35 992.62 161.4 C 986.04 165.45 978.69 167.48 970.59 167.48 C 959.25 167.48 949.68 163.63 941.88 155.94 C 934.08 148.25 930.18 138.47 930.18 126.62 C 930.18 114.77 934.08 105 941.88 97.3 C 949.68 89.6 959.25 85.76 970.59 85.76 C 978.79 85.76 986.24 87.84 992.92 91.99 C 999.6 96.14 1004.56 101.81 1007.81 109 L 996.72 114.01 C 994.39 108.85 990.9 104.82 986.24 101.93 C 981.58 99.04 976.37 97.6 970.59 97.6 C 962.69 97.6 956.01 100.31 950.54 105.73 Z"
         fill="#FFFFFF"
         id="path9" />
      <path
         d=" M 1023.01 164.74 L 1023.01 88.78 L 1035.16 88.78 L 1035.16 120.68 L 1039.11 120.68 L 1070.1 88.78 L 1085.9 88.78 L 1049.75 126.76 L 1085.9 164.74 L 1070.1 164.74 L 1039.11 133.3 L 1035.16 133.3 L 1035.16 164.74 L 1023.01 164.74 Z"
         fill="#FFFFFF"
         id="path10" />
      <path
         d=" M 1168.23 164.74 L 1156.08 164.74 L 1156.08 103.98 L 1114.31 164.74 L 1099.88 164.74 L 1099.88 88.78 L 1112.03 88.78 L 1112.03 148.02 L 1153.65 88.78 L 1168.23 88.78 L 1168.23 164.73 Z"
         fill="#FFFFFF"
         id="path11" />
      <path
         d=" M 1254.82 164.74 L 1242.67 164.74 L 1242.67 103.98 L 1200.9 164.74 L 1186.47 164.74 L 1186.47 88.78 L 1198.62 88.78 L 1198.62 148.02 L 1240.24 88.78 L 1254.82 88.78 L 1254.82 164.73 Z M 1220.94 77.24 C 1213.95 77.24 1208.03 74.94 1203.17 70.33 C 1198.31 65.72 1195.88 60.18 1195.88 53.7 L 1206.06 53.7 C 1206.06 57.75 1207.48 61.09 1210.31 63.73 C 1213.14 66.36 1216.74 67.68 1221.09 67.68 C 1225.44 67.68 1229.32 66.31 1232.41 63.58 C 1235.5 60.85 1237.04 57.56 1237.04 53.71 L 1247.22 53.71 C 1247.22 59.99 1244.61 65.48 1239.4 70.19 C 1234.18 74.9 1228.03 77.25 1220.94 77.25 Z"
         fill="#FFFFFF"
         id="path12" />
      <path
         d=" M 642.13 315.67 C 632.3 306.33 627.39 294.47 627.39 280.1 C 627.39 265.73 632.3 253.87 642.13 244.53 C 651.96 235.19 664 230.52 678.25 230.52 C 692.5 230.52 704.54 235.19 714.37 244.53 C 724.2 253.87 729.11 265.73 729.11 280.1 C 729.11 294.47 724.19 306.33 714.37 315.67 C 704.54 325.01 692.5 329.68 678.25 329.68 C 664 329.68 651.95 325.01 642.13 315.67 Z M 659.18 260.74 C 653.96 265.78 651.35 272.23 651.35 280.09 C 651.35 287.95 653.96 294.4 659.18 299.44 C 664.4 304.48 670.76 307 678.26 307 C 685.76 307 692.11 304.48 697.34 299.44 C 702.56 294.4 705.17 287.95 705.17 280.09 C 705.17 272.23 702.56 265.78 697.34 260.74 C 692.12 255.7 685.76 253.18 678.26 253.18 C 670.76 253.18 664.41 255.7 659.18 260.74 Z"
         fill="#FFFFFF"
         id="path13" />
      <path
         d=" M 755.38 298.99 C 757.65 296.47 758.79 293.18 758.79 289.13 L 758.79 234.21 L 831.96 234.21 L 831.96 326.36 L 808 326.36 L 808 257.8 L 782.75 257.8 L 782.75 291.71 C 782.75 301.17 779.46 309.31 772.89 316.13 C 766.32 322.95 757.87 326.36 747.55 326.36 L 740.91 326.36 L 740.91 302.77 L 745.7 302.77 C 749.88 302.77 753.1 301.51 755.38 298.99 Z"
         fill="#FFFFFF"
         id="path14" />
      <path
         d=" M 943.47 326.36 L 919.51 326.36 L 919.51 264.25 L 878.96 326.36 L 851.31 326.36 L 851.31 234.21 L 875.27 234.21 L 875.27 294.48 L 916 234.21 L 943.46 234.21 L 943.46 326.36 Z"
         fill="#FFFFFF"
         id="path15" />
      <path
         d=" M 1039.3 234.21 L 1039.3 256.51 L 1010.92 256.51 L 1010.92 326.36 L 986.96 326.36 L 986.96 256.51 L 958.76 256.51 L 958.76 234.21 L 1039.3 234.21 Z"
         fill="#FFFFFF"
         id="path16" />
      <path
         d=" M 1076.53 290.79 C 1077.76 296.2 1080.55 300.44 1084.92 303.51 C 1089.28 306.58 1094.47 308.12 1100.49 308.12 C 1105.04 308.12 1109.24 307.14 1113.12 305.17 C 1116.99 303.2 1119.91 300.5 1121.87 297.06 L 1143.8 305.54 C 1139.87 313.04 1134 319.03 1126.2 323.51 C 1118.4 327.99 1109.83 330.24 1100.49 330.24 C 1086.48 330.24 1074.78 325.54 1065.38 316.14 C 1055.98 306.74 1051.28 294.92 1051.28 280.66 C 1051.28 266.4 1055.89 254.58 1065.1 245.18 C 1074.31 235.78 1085.68 231.08 1099.2 231.08 C 1112.72 231.08 1124.6 235.81 1134.13 245.27 C 1143.65 254.73 1148.41 266.47 1148.41 280.47 C 1148.41 283.42 1148.04 286.86 1147.3 290.79 L 1076.53 290.79 Z M 1124.08 270.52 C 1122.97 265.24 1120.21 261.03 1115.79 257.9 C 1111.37 254.77 1106.08 253.2 1099.94 253.2 C 1093.8 253.2 1088.97 254.74 1084.73 257.81 C 1080.49 260.88 1077.76 265.12 1076.53 270.53 L 1124.08 270.53 Z"
         fill="#FFFFFF"
         id="path17" />
      <path
         d=" M 1255.49 326.36 L 1227.66 326.36 L 1207.2 293.55 L 1186.93 326.36 L 1159.1 326.36 L 1189.7 280.28 L 1159.1 234.2 L 1186.93 234.2 L 1207.2 267.01 L 1227.66 234.2 L 1255.49 234.2 L 1224.71 280.28 L 1255.49 326.36 Z"
         fill="#FFFFFF"
         id="path18" />
    </g>
  </g>
</svg>
